<svg xmlns="http://www.w3.org/2000/svg" width="252" height="352" viewBox="0 0 252 352">
<g>
<path d="M 99.24 347.98 C52.84,338.69 15.19,303.44 4.23,259.00 C-4.72,222.73 2.64,184.45 24.16,155.29 C31.85,144.87 50.21,127.41 65.50,115.99 C98.32,91.46 112.08,75.37 120.19,52.00 C124.69,39.05 126.43,19.86 124.04,9.57 C119.67,-9.30 149.12,9.96 168.81,38.84 C177.98,52.29 186.97,74.04 190.65,91.66 C193.28,104.25 193.27,136.85 190.62,149.00 C186.88,166.18 180.93,180.91 171.36,196.67 C165.87,205.73 165.85,206.44 171.11,205.60 C178.35,204.44 186.32,201.11 193.38,196.30 C205.44,188.08 212.40,176.79 215.81,159.93 C216.84,154.80 218.25,150.42 218.93,150.19 C220.72,149.59 226.27,155.31 231.54,163.16 C244.73,182.82 251.34,208.86 249.05,232.16 C246.72,255.83 238.92,276.53 224.22,298.00 C206.34,324.12 177.00,343.15 146.36,348.50 C134.25,350.61 111.11,350.35 99.24,347.98 Z" fill="rgba(0,0,0,1)"/>
</g>
</svg>