<svg xmlns="http://www.w3.org/2000/svg" width="252" height="352" viewBox="0 0 252 352">
<path d="M 0.13 293.75 L 0.00 352.00 L 0.00 0.00 L 0.11 111.25 C0.21,207.53 0.40,221.15 1.53,212.50 C3.39,198.23 6.41,188.09 12.53,175.50 C24.20,151.51 37.75,137.11 75.80,108.26 C96.03,92.92 106.83,80.50 115.47,62.64 C123.35,46.33 125.29,37.23 124.85,18.62 C124.41,0.12 124.67,-0.24 134.61,4.91 C141.27,8.36 156.34,21.87 161.46,29.00 C177.69,51.55 184.88,66.76 190.06,89.50 C192.05,98.21 192.35,102.22 192.34,120.50 C192.34,138.53 192.04,142.71 190.21,150.09 C185.69,168.41 181.08,179.97 172.45,194.63 C165.79,205.95 166.02,207.02 174.72,204.97 C187.77,201.89 202.36,191.42 208.48,180.73 C211.91,174.75 215.54,164.10 216.46,157.30 C217.72,148.07 220.37,148.44 228.49,158.99 C239.12,172.80 247.32,194.71 248.91,213.58 C253.57,268.85 215.28,326.88 162.50,344.52 C146.14,349.99 118.44,351.57 100.37,348.07 C82.51,344.61 69.77,339.28 53.27,328.35 C43.14,321.64 29.37,308.39 22.76,299.00 C12.00,283.70 4.39,264.26 1.62,245.00 C0.36,236.27 0.24,240.24 0.13,293.75 Z" fill="rgb(250,193,25)"/>
</svg>